<?xml version="1.0" standalone="no"?>
<!DOCTYPE svg PUBLIC "-//W3C//DTD SVG 1.1//EN" "http://www.w3.org/Graphics/SVG/1.1/DTD/svg11.dtd" >
<svg xmlns="http://www.w3.org/2000/svg" xmlns:xlink="http://www.w3.org/1999/xlink" version="1.1">
<metadata></metadata>
<defs>
<font id="dollarregular" horiz-adv-x="1440" >
<font-face units-per-em="1600" ascent="1280" descent="-320" />
<missing-glyph horiz-adv-x="500" />
<glyph horiz-adv-x="0" />
<glyph unicode="&#xd;" horiz-adv-x="500" />
<glyph unicode=" "  horiz-adv-x="500" />
<glyph unicode="&#x09;" horiz-adv-x="500" />
<glyph unicode="&#xa0;" horiz-adv-x="500" />
<glyph unicode="!" horiz-adv-x="500" d="M550 900l-200 -600h-200l-200 600q-9 27 -9 54q0 104 105 179q94 67 204 67t204 -67q105 -75 105 -179q0 -27 -9 -54zM350 100q0 -42 -29 -71t-71 -29t-71 29t-29 71t29 71t71 29t71 -29t29 -71z" />
<glyph unicode="&#x22;" horiz-adv-x="500" d="M200 1050q0 -154 -149 -154q-24 0 -51 6q34 1 50 8q50 22 50 90q-42 0 -71 29t-29 71t29 71t71 29t71 -29t29 -71v-50zM500 1050q0 -154 -149 -154q-24 0 -51 6q34 1 50 8q50 22 50 90q-42 0 -71 29t-29 71t29 71t71 29t71 -29t29 -71v-50z" />
<glyph unicode="#" d="M1360 640h-480q0 93 -80 138l240 416q153 -88 236.5 -232.5t83.5 -321.5zM840 640q0 -50 -35 -85t-85 -35t-85 35t-35 85t35 85t85 35t85 -35t35 -85zM640 778q-80 -48 -80 -138h-480q0 177 83.5 321.5t236.5 232.5zM1040 86q-143 -86 -320 -86q-170 0 -320 86l240 416 q38 -22 80 -22q43 0 80 21z" />
<glyph unicode="$" d="M1360 640h-480q0 93 -80 138l240 416q153 -88 236.5 -232.5t83.5 -321.5zM840 640q0 -50 -35 -85t-85 -35t-85 35t-35 85t35 85t85 35t85 -35t35 -85zM640 778q-80 -48 -80 -138h-480q0 177 83.5 321.5t236.5 232.5zM1040 86q-143 -86 -320 -86q-170 0 -320 86l240 416 q38 -22 80 -22q43 0 80 21z" />
<glyph unicode="%" d="M1360 640h-480q0 93 -80 138l240 416q153 -88 236.5 -232.5t83.5 -321.5zM840 640q0 -50 -35 -85t-85 -35t-85 35t-35 85t35 85t85 35t85 -35t35 -85zM640 778q-80 -48 -80 -138h-480q0 177 83.5 321.5t236.5 232.5zM1040 86q-143 -86 -320 -86q-170 0 -320 86l240 416 q38 -22 80 -22q43 0 80 21z" />
<glyph unicode="&#x26;" d="M1360 640h-480q0 93 -80 138l240 416q153 -88 236.5 -232.5t83.5 -321.5zM840 640q0 -50 -35 -85t-85 -35t-85 35t-35 85t35 85t85 35t85 -35t35 -85zM640 778q-80 -48 -80 -138h-480q0 177 83.5 321.5t236.5 232.5zM1040 86q-143 -86 -320 -86q-170 0 -320 86l240 416 q38 -22 80 -22q43 0 80 21z" />
<glyph unicode="'" horiz-adv-x="200" d="M200 1050q0 -154 -149 -154q-24 0 -51 6q34 1 50 8q50 22 50 90q-42 0 -71 29t-29 71t29 71t71 29t71 -29t29 -71v-50z" />
<glyph unicode="(" d="M1360 640h-480q0 93 -80 138l240 416q153 -88 236.5 -232.5t83.5 -321.5zM840 640q0 -50 -35 -85t-85 -35t-85 35t-35 85t35 85t85 35t85 -35t35 -85zM640 778q-80 -48 -80 -138h-480q0 177 83.5 321.5t236.5 232.5zM1040 86q-143 -86 -320 -86q-170 0 -320 86l240 416 q38 -22 80 -22q43 0 80 21z" />
<glyph unicode=")" d="M1360 640h-480q0 93 -80 138l240 416q153 -88 236.5 -232.5t83.5 -321.5zM840 640q0 -50 -35 -85t-85 -35t-85 35t-35 85t35 85t85 35t85 -35t35 -85zM640 778q-80 -48 -80 -138h-480q0 177 83.5 321.5t236.5 232.5zM1040 86q-143 -86 -320 -86q-170 0 -320 86l240 416 q38 -22 80 -22q43 0 80 21z" />
<glyph unicode="*" d="M1360 640h-480q0 93 -80 138l240 416q153 -88 236.5 -232.5t83.5 -321.5zM840 640q0 -50 -35 -85t-85 -35t-85 35t-35 85t35 85t85 35t85 -35t35 -85zM640 778q-80 -48 -80 -138h-480q0 177 83.5 321.5t236.5 232.5zM1040 86q-143 -86 -320 -86q-170 0 -320 86l240 416 q38 -22 80 -22q43 0 80 21z" />
<glyph unicode="+" d="M1360 640h-480q0 93 -80 138l240 416q153 -88 236.5 -232.5t83.5 -321.5zM840 640q0 -50 -35 -85t-85 -35t-85 35t-35 85t35 85t85 35t85 -35t35 -85zM640 778q-80 -48 -80 -138h-480q0 177 83.5 321.5t236.5 232.5zM1040 86q-143 -86 -320 -86q-170 0 -320 86l240 416 q38 -22 80 -22q43 0 80 21z" />
<glyph unicode="," horiz-adv-x="200" d="M200 50q0 -154 -149 -154q-24 0 -51 6q34 1 50 8q50 22 50 90q-42 0 -71 29t-29 71t29 71t71 29t71 -29t29 -71v-50z" />
<glyph unicode="-" d="M1360 640h-480q0 93 -80 138l240 416q153 -88 236.5 -232.5t83.5 -321.5zM840 640q0 -50 -35 -85t-85 -35t-85 35t-35 85t35 85t85 35t85 -35t35 -85zM640 778q-80 -48 -80 -138h-480q0 177 83.5 321.5t236.5 232.5zM1040 86q-143 -86 -320 -86q-170 0 -320 86l240 416 q38 -22 80 -22q43 0 80 21z" />
<glyph unicode="." horiz-adv-x="400" d="M0 100q0 42 29 71t71 29t71 -29t29 -71t-29 -71t-71 -29t-71 29t-29 71z" />
<glyph unicode="/" d="M1360 640h-480q0 93 -80 138l240 416q153 -88 236.5 -232.5t83.5 -321.5zM840 640q0 -50 -35 -85t-85 -35t-85 35t-35 85t35 85t85 35t85 -35t35 -85zM640 778q-80 -48 -80 -138h-480q0 177 83.5 321.5t236.5 232.5zM1040 86q-143 -86 -320 -86q-170 0 -320 86l240 416 q38 -22 80 -22q43 0 80 21z" />
<glyph unicode="0" d="M1360 640h-480q0 93 -80 138l240 416q153 -88 236.5 -232.5t83.5 -321.5zM840 640q0 -50 -35 -85t-85 -35t-85 35t-35 85t35 85t85 35t85 -35t35 -85zM640 778q-80 -48 -80 -138h-480q0 177 83.5 321.5t236.5 232.5zM1040 86q-143 -86 -320 -86q-170 0 -320 86l240 416 q38 -22 80 -22q43 0 80 21z" />
<glyph unicode="1" d="M1360 640h-480q0 93 -80 138l240 416q153 -88 236.5 -232.5t83.5 -321.5zM840 640q0 -50 -35 -85t-85 -35t-85 35t-35 85t35 85t85 35t85 -35t35 -85zM640 778q-80 -48 -80 -138h-480q0 177 83.5 321.5t236.5 232.5zM1040 86q-143 -86 -320 -86q-170 0 -320 86l240 416 q38 -22 80 -22q43 0 80 21z" />
<glyph unicode="2" d="M1360 640h-480q0 93 -80 138l240 416q153 -88 236.5 -232.5t83.5 -321.5zM840 640q0 -50 -35 -85t-85 -35t-85 35t-35 85t35 85t85 35t85 -35t35 -85zM640 778q-80 -48 -80 -138h-480q0 177 83.5 321.5t236.5 232.5zM1040 86q-143 -86 -320 -86q-170 0 -320 86l240 416 q38 -22 80 -22q43 0 80 21z" />
<glyph unicode="3" d="M1360 640h-480q0 93 -80 138l240 416q153 -88 236.5 -232.5t83.5 -321.5zM840 640q0 -50 -35 -85t-85 -35t-85 35t-35 85t35 85t85 35t85 -35t35 -85zM640 778q-80 -48 -80 -138h-480q0 177 83.5 321.5t236.5 232.5zM1040 86q-143 -86 -320 -86q-170 0 -320 86l240 416 q38 -22 80 -22q43 0 80 21z" />
<glyph unicode="4" d="M1360 640h-480q0 93 -80 138l240 416q153 -88 236.5 -232.5t83.5 -321.5zM840 640q0 -50 -35 -85t-85 -35t-85 35t-35 85t35 85t85 35t85 -35t35 -85zM640 778q-80 -48 -80 -138h-480q0 177 83.5 321.5t236.5 232.5zM1040 86q-143 -86 -320 -86q-170 0 -320 86l240 416 q38 -22 80 -22q43 0 80 21z" />
<glyph unicode="5" d="M1360 640h-480q0 93 -80 138l240 416q153 -88 236.5 -232.5t83.5 -321.5zM840 640q0 -50 -35 -85t-85 -35t-85 35t-35 85t35 85t85 35t85 -35t35 -85zM640 778q-80 -48 -80 -138h-480q0 177 83.5 321.5t236.5 232.5zM1040 86q-143 -86 -320 -86q-170 0 -320 86l240 416 q38 -22 80 -22q43 0 80 21z" />
<glyph unicode="6" d="M1360 640h-480q0 93 -80 138l240 416q153 -88 236.5 -232.5t83.5 -321.5zM840 640q0 -50 -35 -85t-85 -35t-85 35t-35 85t35 85t85 35t85 -35t35 -85zM640 778q-80 -48 -80 -138h-480q0 177 83.5 321.5t236.5 232.5zM1040 86q-143 -86 -320 -86q-170 0 -320 86l240 416 q38 -22 80 -22q43 0 80 21z" />
<glyph unicode="7" d="M1360 640h-480q0 93 -80 138l240 416q153 -88 236.5 -232.5t83.5 -321.5zM840 640q0 -50 -35 -85t-85 -35t-85 35t-35 85t35 85t85 35t85 -35t35 -85zM640 778q-80 -48 -80 -138h-480q0 177 83.5 321.5t236.5 232.5zM1040 86q-143 -86 -320 -86q-170 0 -320 86l240 416 q38 -22 80 -22q43 0 80 21z" />
<glyph unicode="8" d="M1360 640h-480q0 93 -80 138l240 416q153 -88 236.5 -232.5t83.5 -321.5zM840 640q0 -50 -35 -85t-85 -35t-85 35t-35 85t35 85t85 35t85 -35t35 -85zM640 778q-80 -48 -80 -138h-480q0 177 83.5 321.5t236.5 232.5zM1040 86q-143 -86 -320 -86q-170 0 -320 86l240 416 q38 -22 80 -22q43 0 80 21z" />
<glyph unicode="9" d="M1360 640h-480q0 93 -80 138l240 416q153 -88 236.5 -232.5t83.5 -321.5zM840 640q0 -50 -35 -85t-85 -35t-85 35t-35 85t35 85t85 35t85 -35t35 -85zM640 778q-80 -48 -80 -138h-480q0 177 83.5 321.5t236.5 232.5zM1040 86q-143 -86 -320 -86q-170 0 -320 86l240 416 q38 -22 80 -22q43 0 80 21z" />
<glyph unicode=":" horiz-adv-x="200" d="M0 100q0 42 29 71t71 29t71 -29t29 -71t-29 -71t-71 -29t-71 29t-29 71zM0 600q0 42 29 71t71 29t71 -29t29 -71t-29 -71t-71 -29t-71 29t-29 71z" />
<glyph unicode=";" horiz-adv-x="200" d="M0 600q0 42 29 71t71 29t71 -29t29 -71t-29 -71t-71 -29t-71 29t-29 71zM200 50q0 -154 -149 -154q-24 0 -51 6q34 1 50 8q50 22 50 90q-42 0 -71 29t-29 71t29 71t71 29t71 -29t29 -71v-50z" />
<glyph unicode="&#x3c;" d="M1360 640h-480q0 93 -80 138l240 416q153 -88 236.5 -232.5t83.5 -321.5zM840 640q0 -50 -35 -85t-85 -35t-85 35t-35 85t35 85t85 35t85 -35t35 -85zM640 778q-80 -48 -80 -138h-480q0 177 83.5 321.5t236.5 232.5zM1040 86q-143 -86 -320 -86q-170 0 -320 86l240 416 q38 -22 80 -22q43 0 80 21z" />
<glyph unicode="=" d="M1360 640h-480q0 93 -80 138l240 416q153 -88 236.5 -232.5t83.5 -321.5zM840 640q0 -50 -35 -85t-85 -35t-85 35t-35 85t35 85t85 35t85 -35t35 -85zM640 778q-80 -48 -80 -138h-480q0 177 83.5 321.5t236.5 232.5zM1040 86q-143 -86 -320 -86q-170 0 -320 86l240 416 q38 -22 80 -22q43 0 80 21z" />
<glyph unicode="&#x3e;" d="M1360 640h-480q0 93 -80 138l240 416q153 -88 236.5 -232.5t83.5 -321.5zM840 640q0 -50 -35 -85t-85 -35t-85 35t-35 85t35 85t85 35t85 -35t35 -85zM640 778q-80 -48 -80 -138h-480q0 177 83.5 321.5t236.5 232.5zM1040 86q-143 -86 -320 -86q-170 0 -320 86l240 416 q38 -22 80 -22q43 0 80 21z" />
<glyph unicode="?" horiz-adv-x="1400" d="M1500 800q0 -206 -168 -301q-92 -52 -313 -91q-169 -30 -169 -78v-30h-300v34q0 76 90 123q148 77 169 96q91 84 91 247q0 127 -18 187q-34 113 -132 113q-125 0 -145 -192q-5 -48 -5 -156v-52h-600v52q0 303 404 407q159 41 346 41q426 0 629 -162q121 -97 121 -238z M600 100q0 42 29 71t71 29t71 -29t29 -71t-29 -71t-71 -29t-71 29t-29 71z" />
<glyph unicode="@" horiz-adv-x="1700" d="M800 600h450q123 0 231 -83q119 -91 119 -217v-100q0 -73 66 -114q57 -36 134 -36v-50h-450q-138 0 -240 79q-110 86 -110 221v100q0 73 -66 114q-57 36 -134 36v50z" />
<glyph unicode="A" horiz-adv-x="1350" d="M1500 0h-1800v50h50q168 0 272 178q38 65 78 172l300 800h500l400 -900q28 -62 85 -144q74 -106 115 -106v-50zM560 500l-160 350l-136 -350h296zM626 355q-1 3 -26 45h-373q-27 -46 -27 -100q0 -88 68 -145q64 -55 153 -55q85 0 150 49q72 53 72 135q0 33 -17 71z" />
<glyph unicode="B" horiz-adv-x="1700" d="M1650 300q0 -127 -86.5 -213.5t-213.5 -86.5h-1450v50q118 0 204 65q96 71 96 185v600q0 114 -96 185q-86 65 -204 65v50h1450q127 0 213.5 -86.5t86.5 -213.5q0 -203 -142 -300q142 -96 142 -300zM1051 863v10q0 93 -68 160.5t-161 67.5q-14 0 -22 -1v-450q7 -1 13 -1 h13q85 0 150 58q75 67 75 156zM1050 350q-10 87 -73 144t-151 57q-17 0 -26 -1v-450q6 -1 12 -1h11q93 0 160.5 68t67.5 161q0 13 -1 22z" />
<glyph unicode="C" horiz-adv-x="1450" d="M1400 400q-155 -331 -438 -397q-115 -27 -312 -27q-282 0 -443 172q-157 168 -157 452q0 299 149 461q154 168 451 163q36 -2 143 -7q351 -17 557 -17v-500h-100q0 161 -68 270q-81 130 -232 130q-174 0 -229 -273q-21 -104 -21 -227q0 -201 50 -331q65 -169 200 -169 q154 0 235 168q65 135 65 332z" />
<glyph unicode="D" horiz-adv-x="1700" d="M1700 600q0 -254 -173 -427t-427 -173h-1200v50q118 0 204 65q96 71 96 185v600q0 114 -96 185q-86 65 -204 65v50h1200q254 0 427 -173t173 -427zM1100 300v600q0 85 -57.5 142.5t-142.5 57.5h-100v-1000h100q85 0 142.5 57.5t57.5 142.5z" />
<glyph unicode="E" horiz-adv-x="1550" d="M1450 0h-1550v50q146 0 217 50q83 59 83 200v600q0 250 -300 250v50h1550v-500h-50l-500 400h-100v-450l300 250v-550l-300 250v-500h50l550 450h50v-550z" />
<glyph unicode="F" horiz-adv-x="1650" d="M1550 650l-350 300l-250 150h-50v-450l300 250v-550l-300 250v-300q0 -124 146 -194q116 -56 254 -56v-50h-1400v50q96 0 191 68q109 78 109 182v600q0 105 -108 182q-96 68 -192 68v50h1650v-550z" />
<glyph unicode="G" horiz-adv-x="1450" d="M1400 0q-32 0 -77 -3q-242 -16 -423 -84v78q-98 -15 -250 -15q-282 0 -443 172q-157 168 -157 452q0 299 149 461q154 168 451 163q36 -2 143 -7q351 -17 557 -17v-500h-100q0 161 -68 270q-81 130 -232 130q-174 0 -229 -273q-21 -104 -21 -227q0 -163 34 -284 q50 -178 166 -210v494q111 -24 200 -24q180 0 300 24v-600z" />
<glyph unicode="H" horiz-adv-x="2000" d="M2100 0h-2200v50q96 0 191 68q109 78 109 182v600q0 105 -108 182q-96 68 -192 68v50h2200v-50q-96 0 -191 -68q-109 -78 -109 -182v-600q0 -105 108 -182q96 -68 192 -68v-50zM1200 650v250q0 78 -64 144q-54 56 -136 86q-82 -30 -136 -86q-64 -66 -64 -144v-250h400z M1200 300v250h-400v-250q0 -78 64 -144q54 -56 136 -86q82 30 136 86q64 66 64 144z" />
<glyph unicode="I" horiz-adv-x="1000" d="M1100 0h-1200v50q96 0 191 68q109 78 109 182v600q0 105 -108 182q-96 68 -192 68v50h1200v-50q-96 0 -191 -68q-109 -78 -109 -182v-600q0 -105 108 -182q96 -68 192 -68v-50z" />
<glyph unicode="J" horiz-adv-x="1400" d="M1500 1150q-96 0 -191 -68q-109 -78 -109 -182v-600q0 -122 -89 -211t-211 -89h-500q-144 0 -248 48q-94 44 -202 152l150 200q0 -350 300 -350q87 0 146 84q54 75 54 166v600q0 137 -140 202q-104 48 -260 48v50h1300v-50z" />
<glyph unicode="K" horiz-adv-x="1700" d="M1800 0h-450q-138 0 -240 79q-110 86 -110 221v100q0 73 -66 114q-57 36 -134 36v-250q0 -104 56 -182q49 -68 94 -68v-50h-1050v50q96 0 191 68q109 78 109 182v600q0 105 -108 182q-96 68 -192 68v50h1050v-50q-44 0 -93 -68q-57 -80 -57 -182v-250q77 0 134 36 q66 41 66 114v100q0 135 110 221q102 79 240 79h450v-50q-77 0 -134 -36q-66 -41 -66 -114v-100q0 -135 -110 -221q-102 -79 -240 -79q138 0 240 -80q110 -86 110 -220v-100q0 -73 66 -114q57 -36 134 -36v-50z" />
<glyph unicode="L" horiz-adv-x="1550" d="M1450 0h-1550v50q96 0 191 68q109 78 109 182v600q0 105 -108 182q-96 68 -192 68v50h1200v-50q-96 0 -191 -68q-109 -78 -109 -182v-800h50l550 450h50v-550z" />
<glyph unicode="M" horiz-adv-x="1950" d="M2050 0h-1100v50q106 0 178 72t72 178v600l-350 -900h-150l-350 800v-500q0 -107 71.5 -178.5t178.5 -71.5v-50h-650v50q118 0 204 65q96 71 96 185v600q0 114 -96 185q-86 65 -204 65v50h800l250 -500l200 500h850v-50q-118 0 -204 -65q-96 -71 -96 -185v-600 q0 -114 96 -185q86 -65 204 -65v-50z" />
<glyph unicode="N" horiz-adv-x="1500" d="M1650 1150h-50q-127 0 -213.5 -86.5t-86.5 -213.5v-850h-400l-600 800v-500q0 -114 96 -185q86 -65 204 -65h50v-50h-800v50h50q234 0 284 357q16 114 16 293v200q-17 17 -78 99q-52 70 -94 103q-61 48 -128 48h-50v50h850l500 -600v250q0 127 -86.5 213.5t-213.5 86.5 h-50v50h800v-50z" />
<glyph unicode="O" horiz-adv-x="1500" d="M1600 600q0 -189 -122 -331q-109 -127 -297 -200q-178 -69 -381 -69q-317 0 -546 153q-254 170 -254 447q0 189 122 331q109 127 297 200q178 69 381 69q317 0 546 -153q254 -170 254 -447zM950 600q0 197 -5 263q-18 237 -145 237q-126 0 -142 -217q-8 -108 -8 -283 q0 -197 5 -263q18 -237 145 -237q126 0 144 237q6 79 6 263z" />
<glyph unicode="P" horiz-adv-x="1700" d="M1650 900q0 -138 -79 -240q-86 -110 -221 -110h-550v-250q0 -107 71.5 -178.5t178.5 -71.5v-50h-1150v50q118 0 204 65q96 71 96 185v600q0 114 -96 185q-86 65 -204 65v50h1450q127 0 213.5 -86.5t86.5 -213.5zM1051 863v10q0 93 -68 160.5t-161 67.5q-14 0 -22 -1v-450 q7 -1 13 -1h13q85 0 150 58q75 67 75 156z" />
<glyph unicode="Q" horiz-adv-x="1500" d="M1600 -100h-450q-158 0 -265 103l-85 -3q-295 -10 -533 143q-267 172 -267 457q0 189 122 331q109 127 297 200q178 69 381 69q317 0 546 -153q254 -170 254 -447q0 -242 -200 -407v-93q0 -73 66 -114q57 -36 134 -36v-50zM950 600q0 197 -5 263q-18 237 -145 237 q-126 0 -142 -217q-8 -108 -8 -283q0 -197 5 -263q18 -237 145 -237q126 0 144 237q6 79 6 263z" />
<glyph unicode="R" horiz-adv-x="1700" d="M1800 0h-450q-138 0 -240 79q-110 86 -110 221v100q0 73 -66 114q-57 36 -134 36v-250q0 -107 71.5 -178.5t178.5 -71.5v-50h-1150v50q118 0 204 65q96 71 96 185v600q0 114 -96 185q-86 65 -204 65v50h1450q127 0 213.5 -86.5t86.5 -213.5q0 -122 -89 -211t-211 -89v-50 q170 0 228 -129l32 -154q24 -99 61 -150q49 -67 129 -67v-50zM1051 863v10q0 93 -68 160.5t-161 67.5q-14 0 -22 -1v-450q7 -1 13 -1h13q85 0 150 58q75 67 75 156z" />
<glyph unicode="S" horiz-adv-x="1500" d="M1500 400q0 -179 -156 -294q-144 -106 -344 -106h-900v400q23 -32 60 -77q182 -223 340 -223h300q46 0 76 41q27 37 27 85q0 45 -29.5 81.5t-73.5 42.5l-400 50q-143 18 -225 140q-75 110 -75 260q0 168 116 284t284 116h900v-350q-19 20 -73 75q-60 60 -141 110 q-105 65 -186 65h-300q-46 0 -76 -41q-27 -37 -27 -85q0 -47 28.5 -83t74.5 -41l500 -50q144 -14 226 -138q74 -111 74 -262z" />
<glyph unicode="T" horiz-adv-x="1500" d="M1500 550h-50q0 78 -296 429q-98 116 -104 121v-700q0 -149 100.5 -249.5t249.5 -100.5v-50h-1300v50q149 0 249.5 100.5t100.5 249.5v700q-14 -15 -103 -120q-297 -351 -297 -430h-50v650h1500v-650z" />
<glyph unicode="U" horiz-adv-x="1600" d="M1750 1150h-50q-101 0 -196 -73q-102 -79 -102 -177v-550q0 -130 -85 -236q-91 -114 -217 -114h-550q-125 0 -212.5 87.5t-87.5 212.5v500q0 134 -82 238q-88 112 -218 112h-50v50h1850v-50zM1300 600q0 145 -10 224q-35 276 -215 276q-179 0 -214 -275q-11 -86 -11 -225 q0 -145 10 -224q35 -276 215 -276q179 0 214 275q11 86 11 225z" />
<glyph unicode="V" horiz-adv-x="1700" d="M1800 1150q-238 0 -349 -250l-401 -900h-600v50q42 0 75.5 35t33.5 78q0 19 -9 37l-350 700q-60 120 -118 176q-77 74 -182 74v50h1900v-50zM1300 900q9 22 9 46q0 79 -92 144q-84 60 -167 60q-99 0 -201 -62q-110 -67 -110 -144q0 -22 11 -44l300 -600z" />
<glyph unicode="W" horiz-adv-x="2500" d="M2779 1150q-136 0 -194 -119q-4 -9 -56 -131l-381 -900h-548l-250 500l-224 -500h-676v50q42 0 75.5 35t33.5 78q0 19 -9 37l-350 700q-60 120 -118 176q-77 74 -182 74v50h1150v-50q-87 0 -170 -54q-93 -60 -93 -143q0 -27 13 -53l300 -600l400 900h175l450 -900 l250 600q24 58 24 113q0 137 -120 137v50h500v-50z" />
<glyph unicode="X" horiz-adv-x="1250" d="M1450 1150q-194 0 -300 -193l-198 -361l148 -296q60 -120 118 -176q77 -74 182 -74v-50h-1550v50q194 0 300 193l198 361l-148 296q-60 120 -118 176q-77 74 -182 74v50h1550v-50zM1050 1000q8 16 8 32q0 49 -56 85q-50 33 -102 33q-54 0 -103 -31q-55 -36 -55 -87 q0 -16 8 -32l150 -300zM550 200l-150 300l-150 -300q-8 -16 -8 -32q0 -49 56 -85q50 -33 102 -33q54 0 103 31q55 36 55 87q0 16 -8 32z" />
<glyph unicode="Y" horiz-adv-x="1250" d="M1500 1150q-205 0 -300 -193l-200 -407v-250q0 -106 70 -182q63 -68 130 -68v-50h-1000v50q53 0 120 67q80 80 80 183v250l-200 350q-47 82 -77 123q-94 127 -223 127v50h1600v-50zM1100 1000q8 16 8 32q0 49 -56 85q-50 33 -102 33q-54 0 -103 -31q-55 -36 -55 -87 q0 -16 8 -32l150 -300z" />
<glyph unicode="Z" horiz-adv-x="1350" d="M1350 0h-1350l650 1100h-50q-230 -115 -434 -289q-67 -57 -166 -161v550h1350l-650 -1100h50q228 114 434 290q71 61 166 160v-550z" />
<glyph unicode="[" d="M1360 640h-480q0 93 -80 138l240 416q153 -88 236.5 -232.5t83.5 -321.5zM840 640q0 -50 -35 -85t-85 -35t-85 35t-35 85t35 85t85 35t85 -35t35 -85zM640 778q-80 -48 -80 -138h-480q0 177 83.5 321.5t236.5 232.5zM1040 86q-143 -86 -320 -86q-170 0 -320 86l240 416 q38 -22 80 -22q43 0 80 21z" />
<glyph unicode="\" d="M1360 640h-480q0 93 -80 138l240 416q153 -88 236.5 -232.5t83.5 -321.5zM840 640q0 -50 -35 -85t-85 -35t-85 35t-35 85t35 85t85 35t85 -35t35 -85zM640 778q-80 -48 -80 -138h-480q0 177 83.5 321.5t236.5 232.5zM1040 86q-143 -86 -320 -86q-170 0 -320 86l240 416 q38 -22 80 -22q43 0 80 21z" />
<glyph unicode="]" d="M1360 640h-480q0 93 -80 138l240 416q153 -88 236.5 -232.5t83.5 -321.5zM840 640q0 -50 -35 -85t-85 -35t-85 35t-35 85t35 85t85 35t85 -35t35 -85zM640 778q-80 -48 -80 -138h-480q0 177 83.5 321.5t236.5 232.5zM1040 86q-143 -86 -320 -86q-170 0 -320 86l240 416 q38 -22 80 -22q43 0 80 21z" />
<glyph unicode="^" d="M1360 640h-480q0 93 -80 138l240 416q153 -88 236.5 -232.5t83.5 -321.5zM840 640q0 -50 -35 -85t-85 -35t-85 35t-35 85t35 85t85 35t85 -35t35 -85zM640 778q-80 -48 -80 -138h-480q0 177 83.5 321.5t236.5 232.5zM1040 86q-143 -86 -320 -86q-170 0 -320 86l240 416 q38 -22 80 -22q43 0 80 21z" />
<glyph unicode="_" d="M1360 640h-480q0 93 -80 138l240 416q153 -88 236.5 -232.5t83.5 -321.5zM840 640q0 -50 -35 -85t-85 -35t-85 35t-35 85t35 85t85 35t85 -35t35 -85zM640 778q-80 -48 -80 -138h-480q0 177 83.5 321.5t236.5 232.5zM1040 86q-143 -86 -320 -86q-170 0 -320 86l240 416 q38 -22 80 -22q43 0 80 21z" />
<glyph unicode="`" horiz-adv-x="1700" d="M1550 1200v-50q-194 0 -300 -193l-250 -457h-600l-200 400q-60 120 -118 176q-77 74 -182 74v50h1650zM850 1000l150 -300l150 300q8 16 8 32q0 49 -56 85q-50 33 -102 33q-54 0 -103 -31q-55 -36 -55 -87q0 -16 8 -32z" />
<glyph unicode="a" horiz-adv-x="1350" d="M1500 0h-1800v50h50q168 0 272 178q38 65 78 172l300 800h500l400 -900q28 -62 85 -144q74 -106 115 -106v-50zM560 500l-160 350l-136 -350h296zM626 355q-1 3 -26 45h-373q-27 -46 -27 -100q0 -88 68 -145q64 -55 153 -55q85 0 150 49q72 53 72 135q0 33 -17 71z" />
<glyph unicode="b" horiz-adv-x="1700" d="M1650 300q0 -127 -86.5 -213.5t-213.5 -86.5h-1450v50q118 0 204 65q96 71 96 185v600q0 114 -96 185q-86 65 -204 65v50h1450q127 0 213.5 -86.5t86.5 -213.5q0 -203 -142 -300q142 -96 142 -300zM1051 863v10q0 93 -68 160.5t-161 67.5q-14 0 -22 -1v-450q7 -1 13 -1 h13q85 0 150 58q75 67 75 156zM1050 350q-10 87 -73 144t-151 57q-17 0 -26 -1v-450q6 -1 12 -1h11q93 0 160.5 68t67.5 161q0 13 -1 22z" />
<glyph unicode="c" horiz-adv-x="1450" d="M1400 400q-155 -331 -438 -397q-115 -27 -312 -27q-282 0 -443 172q-157 168 -157 452q0 299 149 461q154 168 451 163q36 -2 143 -7q351 -17 557 -17v-500h-100q0 161 -68 270q-81 130 -232 130q-174 0 -229 -273q-21 -104 -21 -227q0 -201 50 -331q65 -169 200 -169 q154 0 235 168q65 135 65 332z" />
<glyph unicode="d" horiz-adv-x="1700" d="M1700 600q0 -254 -173 -427t-427 -173h-1200v50q118 0 204 65q96 71 96 185v600q0 114 -96 185q-86 65 -204 65v50h1200q254 0 427 -173t173 -427zM1100 300v600q0 85 -57.5 142.5t-142.5 57.5h-100v-1000h100q85 0 142.5 57.5t57.5 142.5z" />
<glyph unicode="e" horiz-adv-x="1550" d="M1450 0h-1550v50q146 0 217 50q83 59 83 200v600q0 250 -300 250v50h1550v-500h-50l-500 400h-100v-450l300 250v-550l-300 250v-500h50l550 450h50v-550z" />
<glyph unicode="f" horiz-adv-x="1650" d="M1550 650l-350 300l-250 150h-50v-450l300 250v-550l-300 250v-300q0 -124 146 -194q116 -56 254 -56v-50h-1400v50q96 0 191 68q109 78 109 182v600q0 105 -108 182q-96 68 -192 68v50h1650v-550z" />
<glyph unicode="g" horiz-adv-x="1450" d="M1400 0q-32 0 -77 -3q-242 -16 -423 -84v78q-98 -15 -250 -15q-282 0 -443 172q-157 168 -157 452q0 299 149 461q154 168 451 163q36 -2 143 -7q351 -17 557 -17v-500h-100q0 161 -68 270q-81 130 -232 130q-174 0 -229 -273q-21 -104 -21 -227q0 -163 34 -284 q50 -178 166 -210v494q111 -24 200 -24q180 0 300 24v-600z" />
<glyph unicode="h" horiz-adv-x="2000" d="M2100 0h-2200v50q96 0 191 68q109 78 109 182v600q0 105 -108 182q-96 68 -192 68v50h2200v-50q-96 0 -191 -68q-109 -78 -109 -182v-600q0 -105 108 -182q96 -68 192 -68v-50zM1200 650v250q0 78 -64 144q-54 56 -136 86q-82 -30 -136 -86q-64 -66 -64 -144v-250h400z M1200 300v250h-400v-250q0 -78 64 -144q54 -56 136 -86q82 30 136 86q64 66 64 144z" />
<glyph unicode="i" horiz-adv-x="1000" d="M1100 0h-1200v50q96 0 191 68q109 78 109 182v600q0 105 -108 182q-96 68 -192 68v50h1200v-50q-96 0 -191 -68q-109 -78 -109 -182v-600q0 -105 108 -182q96 -68 192 -68v-50z" />
<glyph unicode="j" horiz-adv-x="1400" d="M1500 1150q-96 0 -191 -68q-109 -78 -109 -182v-600q0 -122 -89 -211t-211 -89h-500q-144 0 -248 48q-94 44 -202 152l150 200q0 -350 300 -350q87 0 146 84q54 75 54 166v600q0 137 -140 202q-104 48 -260 48v50h1300v-50z" />
<glyph unicode="k" horiz-adv-x="1700" d="M1800 0h-450q-138 0 -240 79q-110 86 -110 221v100q0 73 -66 114q-57 36 -134 36v-250q0 -104 56 -182q49 -68 94 -68v-50h-1050v50q96 0 191 68q109 78 109 182v600q0 105 -108 182q-96 68 -192 68v50h1050v-50q-44 0 -93 -68q-57 -80 -57 -182v-250q77 0 134 36 q66 41 66 114v100q0 135 110 221q102 79 240 79h450v-50q-77 0 -134 -36q-66 -41 -66 -114v-100q0 -135 -110 -221q-102 -79 -240 -79q138 0 240 -80q110 -86 110 -220v-100q0 -73 66 -114q57 -36 134 -36v-50z" />
<glyph unicode="l" horiz-adv-x="1550" d="M1450 0h-1550v50q96 0 191 68q109 78 109 182v600q0 105 -108 182q-96 68 -192 68v50h1200v-50q-96 0 -191 -68q-109 -78 -109 -182v-800h50l550 450h50v-550z" />
<glyph unicode="m" horiz-adv-x="1950" d="M2050 0h-1100v50q106 0 178 72t72 178v600l-350 -900h-150l-350 800v-500q0 -107 71.5 -178.5t178.5 -71.5v-50h-650v50q118 0 204 65q96 71 96 185v600q0 114 -96 185q-86 65 -204 65v50h800l250 -500l200 500h850v-50q-118 0 -204 -65q-96 -71 -96 -185v-600 q0 -114 96 -185q86 -65 204 -65v-50z" />
<glyph unicode="n" horiz-adv-x="1500" d="M1650 1150h-50q-127 0 -213.5 -86.5t-86.5 -213.5v-850h-400l-600 800v-500q0 -114 96 -185q86 -65 204 -65h50v-50h-800v50h50q234 0 284 357q16 114 16 293v200q-17 17 -78 99q-52 70 -94 103q-61 48 -128 48h-50v50h850l500 -600v250q0 127 -86.5 213.5t-213.5 86.5 h-50v50h800v-50z" />
<glyph unicode="o" horiz-adv-x="1500" d="M1600 600q0 -189 -122 -331q-109 -127 -297 -200q-178 -69 -381 -69q-317 0 -546 153q-254 170 -254 447q0 189 122 331q109 127 297 200q178 69 381 69q317 0 546 -153q254 -170 254 -447zM950 600q0 197 -5 263q-18 237 -145 237q-126 0 -142 -217q-8 -108 -8 -283 q0 -197 5 -263q18 -237 145 -237q126 0 144 237q6 79 6 263z" />
<glyph unicode="p" horiz-adv-x="1700" d="M1650 900q0 -138 -79 -240q-86 -110 -221 -110h-550v-250q0 -107 71.5 -178.5t178.5 -71.5v-50h-1150v50q118 0 204 65q96 71 96 185v600q0 114 -96 185q-86 65 -204 65v50h1450q127 0 213.5 -86.5t86.5 -213.5zM1051 863v10q0 93 -68 160.5t-161 67.5q-14 0 -22 -1v-450 q7 -1 13 -1h13q85 0 150 58q75 67 75 156z" />
<glyph unicode="q" horiz-adv-x="1500" d="M1600 -100h-450q-158 0 -265 103l-85 -3q-295 -10 -533 143q-267 172 -267 457q0 189 122 331q109 127 297 200q178 69 381 69q317 0 546 -153q254 -170 254 -447q0 -242 -200 -407v-93q0 -73 66 -114q57 -36 134 -36v-50zM950 600q0 197 -5 263q-18 237 -145 237 q-126 0 -142 -217q-8 -108 -8 -283q0 -197 5 -263q18 -237 145 -237q126 0 144 237q6 79 6 263z" />
<glyph unicode="r" horiz-adv-x="1700" d="M1800 0h-450q-138 0 -240 79q-110 86 -110 221v100q0 73 -66 114q-57 36 -134 36v-250q0 -107 71.5 -178.5t178.5 -71.5v-50h-1150v50q118 0 204 65q96 71 96 185v600q0 114 -96 185q-86 65 -204 65v50h1450q127 0 213.5 -86.5t86.5 -213.5q0 -122 -89 -211t-211 -89v-50 q170 0 228 -129l32 -154q24 -99 61 -150q49 -67 129 -67v-50zM1051 863v10q0 93 -68 160.5t-161 67.5q-14 0 -22 -1v-450q7 -1 13 -1h13q85 0 150 58q75 67 75 156z" />
<glyph unicode="s" horiz-adv-x="1500" d="M1500 400q0 -179 -156 -294q-144 -106 -344 -106h-900v400q23 -32 60 -77q182 -223 340 -223h300q46 0 76 41q27 37 27 85q0 45 -29.5 81.5t-73.5 42.5l-400 50q-143 18 -225 140q-75 110 -75 260q0 168 116 284t284 116h900v-350q-19 20 -73 75q-60 60 -141 110 q-105 65 -186 65h-300q-46 0 -76 -41q-27 -37 -27 -85q0 -47 28.5 -83t74.5 -41l500 -50q144 -14 226 -138q74 -111 74 -262z" />
<glyph unicode="t" horiz-adv-x="1500" d="M1500 550h-50q0 78 -296 429q-98 116 -104 121v-700q0 -149 100.5 -249.5t249.5 -100.5v-50h-1300v50q149 0 249.5 100.5t100.5 249.5v700q-14 -15 -103 -120q-297 -351 -297 -430h-50v650h1500v-650z" />
<glyph unicode="u" horiz-adv-x="1600" d="M1750 1150h-50q-101 0 -196 -73q-102 -79 -102 -177v-550q0 -130 -85 -236q-91 -114 -217 -114h-550q-125 0 -212.5 87.5t-87.5 212.5v500q0 134 -82 238q-88 112 -218 112h-50v50h1850v-50zM1300 600q0 145 -10 224q-35 276 -215 276q-179 0 -214 -275q-11 -86 -11 -225 q0 -145 10 -224q35 -276 215 -276q179 0 214 275q11 86 11 225z" />
<glyph unicode="v" horiz-adv-x="1700" d="M1800 1150q-238 0 -349 -250l-401 -900h-600v50q42 0 75.5 35t33.5 78q0 19 -9 37l-350 700q-60 120 -118 176q-77 74 -182 74v50h1900v-50zM1300 900q9 22 9 46q0 79 -92 144q-84 60 -167 60q-99 0 -201 -62q-110 -67 -110 -144q0 -22 11 -44l300 -600z" />
<glyph unicode="w" horiz-adv-x="2500" d="M2779 1150q-136 0 -194 -119q-4 -9 -56 -131l-381 -900h-548l-250 500l-224 -500h-676v50q42 0 75.5 35t33.5 78q0 19 -9 37l-350 700q-60 120 -118 176q-77 74 -182 74v50h1150v-50q-87 0 -170 -54q-93 -60 -93 -143q0 -27 13 -53l300 -600l400 900h175l450 -900 l250 600q24 58 24 113q0 137 -120 137v50h500v-50z" />
<glyph unicode="x" horiz-adv-x="1250" d="M1450 1150q-194 0 -300 -193l-198 -361l148 -296q60 -120 118 -176q77 -74 182 -74v-50h-1550v50q194 0 300 193l198 361l-148 296q-60 120 -118 176q-77 74 -182 74v50h1550v-50zM1050 1000q8 16 8 32q0 49 -56 85q-50 33 -102 33q-54 0 -103 -31q-55 -36 -55 -87 q0 -16 8 -32l150 -300zM550 200l-150 300l-150 -300q-8 -16 -8 -32q0 -49 56 -85q50 -33 102 -33q54 0 103 31q55 36 55 87q0 16 -8 32z" />
<glyph unicode="y" horiz-adv-x="1250" d="M1500 1150q-205 0 -300 -193l-200 -407v-250q0 -106 70 -182q63 -68 130 -68v-50h-1000v50q53 0 120 67q80 80 80 183v250l-200 350q-47 82 -77 123q-94 127 -223 127v50h1600v-50zM1100 1000q8 16 8 32q0 49 -56 85q-50 33 -102 33q-54 0 -103 -31q-55 -36 -55 -87 q0 -16 8 -32l150 -300z" />
<glyph unicode="z" horiz-adv-x="1350" d="M1350 0h-1350l650 1100h-50q-230 -115 -434 -289q-67 -57 -166 -161v550h1350l-650 -1100h50q228 114 434 290q71 61 166 160v-550z" />
<glyph unicode="{" d="M1360 640h-480q0 93 -80 138l240 416q153 -88 236.5 -232.5t83.5 -321.5zM840 640q0 -50 -35 -85t-85 -35t-85 35t-35 85t35 85t85 35t85 -35t35 -85zM640 778q-80 -48 -80 -138h-480q0 177 83.5 321.5t236.5 232.5zM1040 86q-143 -86 -320 -86q-170 0 -320 86l240 416 q38 -22 80 -22q43 0 80 21z" />
<glyph unicode="|" d="M1360 640h-480q0 93 -80 138l240 416q153 -88 236.5 -232.5t83.5 -321.5zM840 640q0 -50 -35 -85t-85 -35t-85 35t-35 85t35 85t85 35t85 -35t35 -85zM640 778q-80 -48 -80 -138h-480q0 177 83.5 321.5t236.5 232.5zM1040 86q-143 -86 -320 -86q-170 0 -320 86l240 416 q38 -22 80 -22q43 0 80 21z" />
<glyph unicode="}" d="M1360 640h-480q0 93 -80 138l240 416q153 -88 236.5 -232.5t83.5 -321.5zM840 640q0 -50 -35 -85t-85 -35t-85 35t-35 85t35 85t85 35t85 -35t35 -85zM640 778q-80 -48 -80 -138h-480q0 177 83.5 321.5t236.5 232.5zM1040 86q-143 -86 -320 -86q-170 0 -320 86l240 416 q38 -22 80 -22q43 0 80 21z" />
<glyph unicode="~" d="M1360 640h-480q0 93 -80 138l240 416q153 -88 236.5 -232.5t83.5 -321.5zM840 640q0 -50 -35 -85t-85 -35t-85 35t-35 85t35 85t85 35t85 -35t35 -85zM640 778q-80 -48 -80 -138h-480q0 177 83.5 321.5t236.5 232.5zM1040 86q-143 -86 -320 -86q-170 0 -320 86l240 416 q38 -22 80 -22q43 0 80 21z" />
<glyph unicode="&#xad;" d="M1360 640h-480q0 93 -80 138l240 416q153 -88 236.5 -232.5t83.5 -321.5zM840 640q0 -50 -35 -85t-85 -35t-85 35t-35 85t35 85t85 35t85 -35t35 -85zM640 778q-80 -48 -80 -138h-480q0 177 83.5 321.5t236.5 232.5zM1040 86q-143 -86 -320 -86q-170 0 -320 86l240 416 q38 -22 80 -22q43 0 80 21z" />
<glyph unicode="&#xb9;" horiz-adv-x="1550" d="M1450 0h-1550v50q146 0 217 50q83 59 83 200v600q0 250 -300 250v50h1550v-500h-50l-500 400h-100v-450l300 250v-550l-300 250v-500h50l550 450h50v-550zM1025 1200q-120 0 -120 100t120 100t120 -100t-120 -100zM525 1200q-120 0 -120 100t120 100t120 -100t-120 -100z " />
<glyph unicode="&#xc0;" horiz-adv-x="1350" d="M1500 0h-1800v50h50q168 0 272 178q38 65 78 172l300 800h500l400 -900q28 -62 85 -144q74 -106 115 -106v-50zM560 500l-160 350l-136 -350h296zM626 355q-1 3 -26 45h-373q-27 -46 -27 -100q0 -88 68 -145q64 -55 153 -55q85 0 150 49q72 53 72 135q0 33 -17 71z" />
<glyph unicode="&#xc1;" horiz-adv-x="1700" d="M1177 650q217 0 330 -66q143 -84 143 -284q0 -127 -86.5 -213.5t-213.5 -86.5h-1450v50q118 0 204 65q96 71 96 185v600q0 114 -96 185q-86 65 -204 65v50h1550v-500h-50l-500 400h-100v-450h377zM1050 350q-10 87 -73 144t-151 57q-17 0 -26 -1v-450q6 -1 12 -1h11 q93 0 160.5 68t67.5 161q0 13 -1 22z" />
<glyph unicode="&#xc2;" horiz-adv-x="1700" d="M1650 300q0 -127 -86.5 -213.5t-213.5 -86.5h-1450v50q118 0 204 65q96 71 96 185v600q0 114 -96 185q-86 65 -204 65v50h1450q127 0 213.5 -86.5t86.5 -213.5q0 -203 -142 -300q142 -96 142 -300zM1051 863v10q0 93 -68 160.5t-161 67.5q-14 0 -22 -1v-450q7 -1 13 -1 h13q85 0 150 58q75 67 75 156zM1050 350q-10 87 -73 144t-151 57q-17 0 -26 -1v-450q6 -1 12 -1h11q93 0 160.5 68t67.5 161q0 13 -1 22z" />
<glyph unicode="&#xc3;" horiz-adv-x="1550" d="M1450 1200h-1550v-50q96 0 191 -68q109 -78 109 -182v-600q0 -105 -108 -182q-96 -68 -192 -68v-50h1200v50q-96 0 -191 68q-109 78 -109 182v800h50l550 -450h50v550z" />
<glyph unicode="&#xc4;" horiz-adv-x="1886" d="M1412 0l500 -400h50v500h-100q-119 0 -214 69q-105 76 -105 191v540q0 104 109 182q95 68 191 68v50h-1700v-50q96 0 192 -68q108 -77 108 -182v-540q0 -115 -108 -192q-42 -30 -156 -51q-92 -17 -155 -17h-100v-500h50l500 400h938zM606 1050q49 50 137 50t144 -56 t56 -144v-600q-21 -200 -200 -200q-91 0 -137 48q-63 66 -63 152v600q0 85 63 150z" />
<glyph unicode="&#xc5;" horiz-adv-x="1550" d="M1450 0h-1550v50q146 0 217 50q83 59 83 200v600q0 250 -300 250v50h1550v-500h-50l-500 400h-100v-450l300 250v-550l-300 250v-500h50l550 450h50v-550z" />
<glyph unicode="&#xc6;" horiz-adv-x="2400" d="M1650 0v50q-45 0 -94 68q-56 78 -56 182v250q68 0 122 -40q58 -44 58 -110v-100q0 -135 110 -221q102 -79 240 -79h450v50q-77 0 -134 36q-66 41 -66 114v100q0 134 -110 220q-102 80 -240 80q138 0 240 79q110 86 110 221v100q0 73 66 114q57 36 134 36v50h-450 q-138 0 -240 -79q-110 -86 -110 -221v-100q0 -66 -58 -110q-54 -40 -122 -40v250q0 102 57 182q49 68 93 68v50h-890v-50q67 0 108 -97q32 -77 32 -153v-250q-68 0 -122 40q-58 44 -58 110v100q0 135 -110 221q-102 79 -240 79h-450v-50q77 0 134 -36q66 -41 66 -114v-100 q0 -135 110 -221q102 -79 240 -79q-138 0 -240 -80q-110 -86 -110 -220v-100q0 -73 -66 -114q-57 -36 -134 -36v-50h450q138 0 240 79q110 86 110 221v100q0 66 58 110q54 40 122 40v-250q0 -105 -56 -182q-49 -68 -94 -68v-50h900z" />
<glyph unicode="&#xc7;" horiz-adv-x="1450" d="M721 251q-58 -151 -221 -151q-143 0 -220 127q-31 51 -60 164l-140 -190q66 -48 179 -118q71 -44 229 -80q118 -27 312 -27q276 0 431 154q62 62 84 104q27 52 28 134q1 94 -80 164q-65 56 -135 67q70 18 140 90q78 80 79 165q2 121 -108 237q-130 137 -449 133 q-23 -1 -143 -7q-344 -17 -537 -17v-415h100q5 66 22 106q14 34 55 92q82 117 213 117q88 0 152 -81l44 -56q19 -31 24 -85q6 -62 -36 -132q-24 -40 -66 -67q-45 -29 -89 -28v-100q56 -8 115 -42q94 -55 94 -173q0 -41 -17 -85z" />
<glyph unicode="&#xc8;" horiz-adv-x="2000" d="M1800 900q0 104 109 182q95 68 191 68v50h-2200v-50q96 0 192 -68q108 -77 108 -182v-600q0 -104 -109 -182q-95 -68 -191 -68v-50h2200v50q-96 0 -192 68q-108 77 -108 182v600zM1000 70q-82 30 -136 86q-64 66 -64 144v32l400 404v-436q0 -79 -63 -144 q-54 -55 -137 -86zM800 900q0 78 64 144q54 56 136 86q82 -30 136 -86q64 -66 64 -144v-26l-400 -400v426z" />
<glyph unicode="&#xc9;" horiz-adv-x="2000" d="M2100 0v50q-96 0 -192 68q-108 77 -108 182v600q0 104 109 182q95 68 191 68v50h-786q37 3 61 31.5t24 66.5q0 100 -120 100q-131 0 -131 -100q0 -13 -63 -22q-43 -6 -77 -6q-38 0 -89 7q-69 9 -69 21q0 100 -131 100q-120 0 -120 -100q0 -39 26 -68.5t65 -29.5h-790v-50 q96 0 192 -68q108 -77 108 -182v-600q0 -104 -109 -182q-95 -68 -191 -68v-50h2200zM800 300v32l400 404v-436q0 -79 -64 -144q-54 -56 -136 -86q-82 30 -136 86q-64 66 -64 144zM800 900q0 78 64 144q54 56 136 86q82 -30 136 -86q64 -66 64 -144v-26l-400 -400v426z" />
<glyph unicode="&#xca;" horiz-adv-x="1700" d="M1800 0h-450q-138 0 -240 79q-110 86 -110 221v100q0 73 -66 114q-57 36 -134 36v-250q0 -104 56 -182q49 -68 94 -68v-50h-1050v50q96 0 191 68q109 78 109 182v600q0 105 -108 182q-96 68 -192 68v50h1050v-50q-44 0 -93 -68q-57 -80 -57 -182v-250q77 0 134 36 q66 41 66 114v100q0 135 110 221q102 79 240 79h450v-50q-77 0 -134 -36q-66 -41 -66 -114v-100q0 -135 -110 -221q-102 -79 -240 -79q138 0 240 -80q110 -86 110 -220v-100q0 -73 66 -114q57 -36 134 -36v-50z" />
<glyph unicode="&#xcb;" horiz-adv-x="1721" d="M521 300v600q0 54 26.5 105t71.5 76q33 19 102 19q92 1 137 -46q63 -66 63 -154v-600q0 -105 -108 -182q-96 -68 -192 -68v-50h1200v50q-96 0 -192 68q-108 77 -108 182v600q0 104 109 182q95 68 191 68v50h-1700v-50q96 0 192 -68q108 -77 108 -182v-600 q0 -104 -109 -182q-33 -24 -66 -24q-7 0 -22 3t-22 3q-131 19 -203 333l-99 -233q66 -100 115 -141q71 -59 167 -59h101q59 0 135 66q103 89 103 234z" />
<glyph unicode="&#xcc;" horiz-adv-x="1950" d="M2050 0h-1100v50q106 0 178 72t72 178v600l-350 -900h-150l-350 800v-500q0 -107 71.5 -178.5t178.5 -71.5v-50h-650v50q118 0 204 65q96 71 96 185v600q0 114 -96 185q-86 65 -204 65v50h800l250 -500l200 500h850v-50q-118 0 -204 -65q-96 -71 -96 -185v-600 q0 -114 96 -185q86 -65 204 -65v-50z" />
<glyph unicode="&#xcd;" horiz-adv-x="2000" d="M2100 0h-2200v50q96 0 191 68q109 78 109 182v600q0 105 -108 182q-96 68 -192 68v50h2200v-50q-96 0 -191 -68q-109 -78 -109 -182v-600q0 -105 108 -182q96 -68 192 -68v-50zM1200 650v250q0 78 -64 144q-54 56 -136 86q-82 -30 -136 -86q-64 -66 -64 -144v-250h400z M1200 300v250h-400v-250q0 -78 64 -144q54 -56 136 -86q82 30 136 86q64 66 64 144z" />
<glyph unicode="&#xce;" horiz-adv-x="1500" d="M1600 600q0 -189 -122 -331q-109 -127 -297 -200q-178 -69 -381 -69q-317 0 -546 153q-254 170 -254 447q0 189 122 331q109 127 297 200q178 69 381 69q317 0 546 -153q254 -170 254 -447zM950 600q0 197 -5 263q-18 237 -145 237q-126 0 -142 -217q-8 -108 -8 -283 q0 -197 5 -263q18 -237 145 -237q126 0 144 237q6 79 6 263z" />
<glyph unicode="&#xcf;" horiz-adv-x="2000" d="M2100 0h-2200v50q96 0 191 68q109 78 109 182v600q0 105 -108 182q-96 68 -192 68v50h2200v-50q-96 0 -191 -68q-109 -78 -109 -182v-600q0 -105 108 -182q96 -68 192 -68v-50zM1137 1053q-45 47 -136 47q-93 0 -138 -47q-63 -65 -63 -153v-600q0 -78 64 -144 q54 -56 136 -86q82 30 136 86q64 66 64 144v600q0 87 -63 153z" />
<glyph unicode="&#xd0;" horiz-adv-x="1700" d="M1650 900q0 -138 -79 -240q-86 -110 -221 -110h-550v-250q0 -107 71.5 -178.5t178.5 -71.5v-50h-1150v50q118 0 204 65q96 71 96 185v600q0 114 -96 185q-86 65 -204 65v50h1450q127 0 213.5 -86.5t86.5 -213.5zM1051 863v10q0 93 -68 160.5t-161 67.5q-14 0 -22 -1v-450 q7 -1 13 -1h13q85 0 150 58q75 67 75 156z" />
<glyph unicode="&#xd1;" horiz-adv-x="1450" d="M1400 400q-155 -331 -438 -397q-115 -27 -312 -27q-282 0 -443 172q-157 168 -157 452q0 299 149 461q154 168 451 163q36 -2 143 -7q351 -17 557 -17v-500h-100q0 161 -68 270q-81 130 -232 130q-174 0 -229 -273q-21 -104 -21 -227q0 -201 50 -331q65 -169 200 -169 q154 0 235 168q65 135 65 332z" />
<glyph unicode="&#xd2;" horiz-adv-x="1500" d="M1500 550h-50q0 78 -296 429q-98 116 -104 121v-700q0 -149 100.5 -249.5t249.5 -100.5v-50h-1300v50q149 0 249.5 100.5t100.5 249.5v700q-14 -15 -103 -120q-297 -351 -297 -430h-50v650h1500v-650z" />
<glyph unicode="&#xd3;" horiz-adv-x="1250" d="M640 240l-440 660q-19 33 -77 123q-86 127 -223 127v50h1600v-50q-210 0 -300 -193l-360 -774q-25 -55 -60 -91q-88 -92 -211 -92h-29q-144 0 -248 48q-94 44 -202 152l137 233q39 -109 120 -217q33 -44 85 -74q57 -33 108 -32q58 1 79 7q39 11 65 48zM1100 1000 q8 17 8 32q0 49 -56 85q-50 33 -102 33q-54 0 -103 -31q-55 -36 -55 -87q0 -19 8 -32l170 -280z" />
<glyph unicode="&#xd4;" horiz-adv-x="2120" d="M618 813q-69 -69 -69 -209v-10q0 -5 1 -13q17 -141 75 -193q65 -58 109 -58h13q6 0 13 1v550q-2 0 -9 1q-57 7 -133 -69zM651 1082q-95 68 -191 68v50h1200v-50q-96 0 -191 -68q-52 -37 -109 -101h510q124 0 212 -88q41 -41 66 -123q22 -71 22 -139q0 -189 -83 -292 q-87 -108 -217 -108h-510q28 -42 37 -52q25 -28 71 -61q95 -68 192 -68v-50h-1200v50q96 0 192 68q61 43 108 113h-510q-130 0 -217 108q-83 103 -83 292q0 68 22 140q24 80 66 122q88 88 212 88h510q-51 60 -109 101zM1570 581q1 9 1 13v10q0 140 -69 209q-59 59 -120 69 q-6 1 -22 -1v-550q7 -1 13 -1h13q79 0 134 91q39 65 50 160z" />
<glyph unicode="&#xd5;" horiz-adv-x="1250" d="M1450 1150q-194 0 -300 -193l-198 -361l148 -296q60 -120 118 -176q77 -74 182 -74v-50h-1550v50q194 0 300 193l198 361l-148 296q-60 120 -118 176q-77 74 -182 74v50h1550v-50zM1050 1000q8 16 8 32q0 49 -56 85q-50 33 -102 33q-54 0 -103 -31q-55 -36 -55 -87 q0 -16 8 -32l150 -300zM550 200l-150 300l-150 -300q-8 -16 -8 -32q0 -49 56 -85q50 -33 102 -33q54 0 103 31q55 36 55 87q0 16 -8 32z" />
<glyph unicode="&#xd6;" horiz-adv-x="2064" d="M-100 1200h2200v-50q-96 0 -192 -68q-108 -77 -108 -182v-550q0 -104 109 -182q95 -68 191 -68h38v-510h-50q-227 299 -550 410h-1638v50q96 0 192 68q108 77 108 182v600q0 104 -109 182q-95 68 -191 68v50zM800 900v-600q0 -88 63 -153q45 -47 138 -47q91 0 136 47 q63 66 63 153v600q0 78 -64 144q-54 56 -136 86q-82 -30 -136 -86q-64 -66 -64 -144z" />
<glyph unicode="&#xd7;" horiz-adv-x="1830" d="M1930 1150q-118 0 -204 -65q-96 -71 -96 -185v-600q0 -114 96 -185q86 -65 204 -65v-50h-1150v50q107 0 178.5 71.5t71.5 178.5v200q-30 -1 -185 -9q-134 -7 -222 -7q-44 0 -139 5q-131 7 -221 119q-70 87 -75 293q-1 47 -30 100.5t-67 80.5q-95 68 -191 68v50h2030v-50z M779 843q0 -45 22 -100q23 -58 54 -86q65 -58 149 -58h13q6 0 13 1v298q0 100 -15 137q-19 47 -91 95q-136 -68 -144 -221q-1 -20 -1 -56v-10z" />
<glyph unicode="&#xd8;" horiz-adv-x="2960" d="M3060 1200v-50q-96 0 -191 -68q-109 -78 -109 -182v-600q0 -105 108 -182q96 -68 192 -68v-50h-3160v50q96 0 192 68q108 77 108 182v600q0 104 -109 182q-95 68 -191 68v50h3160zM1780 900v-600q0 -88 63 -153q45 -47 128 -47q81 0 126 47q63 66 63 153v600 q0 73 -61 141q-55 62 -129 89q-75 -28 -129 -89q-61 -68 -61 -141zM800 900v-600q0 -88 63 -153q45 -47 128 -47q81 0 126 47q63 66 63 153v600q0 73 -61 141q-55 62 -129 89q-75 -28 -129 -89q-61 -68 -61 -141z" />
<glyph unicode="&#xd9;" horiz-adv-x="3024" d="M-100 50q96 0 192 68q108 77 108 182v600q0 104 -109 182q-95 68 -191 68v50h3160v-50q-96 0 -192 -68q-108 -77 -108 -182v-550q0 -104 109 -182q95 -68 191 -68h38v-510h-50q-227 299 -550 410h-2598v50zM1780 900v-600q0 -88 63 -153q45 -47 128 -47q81 0 126 47 q63 66 63 153v600q0 73 -61 141q-55 62 -129 89q-75 -28 -129 -89q-61 -68 -61 -141zM-100 1200zM800 900v-600q0 -88 63 -153q45 -47 128 -47q81 0 126 47q63 66 63 153v600q0 73 -61 141q-55 62 -129 89q-75 -28 -129 -89q-61 -68 -61 -141z" />
<glyph unicode="&#xda;" horiz-adv-x="2110" d="M-100 701h50l510 400q20 0 57 -19q93 -72 93 -182v-600q0 -114 -96 -185q-86 -65 -204 -65v-50h1450q114 0 212 98q88 88 88 212q0 142 -78 237q-83 103 -222 103h-550v250q0 107 71.5 178.5t178.5 71.5v50l-1560 1v-500zM1461 338v-11q0 -93 -68 -160.5t-161 -67.5 q-14 0 -22 1v450q7 1 13 1h13q86 0 150 -57q75 -67 75 -156z" />
<glyph unicode="&#xdb;" horiz-adv-x="2670" d="M1650 310q0 142 -78 237q-83 103 -222 103h-550v250q0 107 71.5 178.5t178.5 71.5v50h-1150v-50q118 0 204 -65q96 -71 96 -185v-600q0 -114 -96 -185q-86 -65 -204 -65v-50h1450q114 0 212 98q88 88 88 212zM1051 338v-11q0 -93 -68 -160.5t-161 -67.5q-14 0 -22 1v450 q7 1 13 1h13q86 0 150 -57q75 -67 75 -156zM2770 0h-1200v50q96 0 191 68q109 78 109 182v600q0 105 -108 182q-96 68 -192 68v50h1200v-50q-96 0 -191 -68q-109 -78 -109 -182v-600q0 -105 108 -182q96 -68 192 -68v-50z" />
<glyph unicode="&#xdc;" horiz-adv-x="1700" d="M1650 310q0 142 -78 237q-83 103 -222 103h-550v250q0 107 71.5 178.5t178.5 71.5v50h-1150v-50q118 0 204 -65q96 -71 96 -185v-600q0 -114 -96 -185q-86 -65 -204 -65v-50h1450q114 0 212 98q88 88 88 212zM1051 338v-11q0 -93 -68 -160.5t-161 -67.5q-14 0 -22 1v450 q7 1 13 1h13q86 0 150 -57q75 -67 75 -156z" />
<glyph unicode="&#xdd;" horiz-adv-x="1450" d="M700 269q-65 -169 -200 -169q-143 0 -220 127q-31 51 -60 164l-140 -190q66 -48 179 -118q71 -44 229 -80q118 -27 312 -27q282 0 443 172q157 168 157 452q0 300 -148 461q-154 168 -452 163q-36 -2 -143 -7q-351 -17 -557 -17v-480h100q0 151 73 258q83 122 227 122 q174 0 229 -273q17 -84 21 -177l-300 250v-550l300 250q0 -201 -50 -331z" />
<glyph unicode="&#xde;" horiz-adv-x="2390" d="M800 550v-250q0 -105 108 -182q96 -68 192 -68v-50h-1200v50q96 0 191 68q109 78 109 182v600q0 105 -108 182q-96 68 -192 68v50h1200v-50q-96 0 -191 -68q-109 -78 -109 -182v-250h92q13 177 148 312q118 118 301 181q167 57 349 57q317 0 546 -153q254 -170 254 -447 q0 -189 -122 -331q-109 -127 -297 -200q-178 -69 -381 -69q-286 0 -512 131q-266 154 -286 419h-92zM1840 600q0 197 -5 263q-18 237 -145 237q-126 0 -142 -217q-8 -108 -8 -283q0 -197 5 -263q18 -237 145 -237q126 0 144 237q6 79 6 263z" />
<glyph unicode="&#xdf;" horiz-adv-x="1700" d="M-85 0h450q137 0 231.5 82t108.5 218l10 100q7 73 63 113q51 37 127 37v-250q0 -107 -71.5 -178.5t-178.5 -71.5v-50h1150v50q-118 0 -204 65q-96 71 -96 185v600q0 114 96 185q86 65 204 65v50h-1450q-48 0 -111.5 -30.5t-100.5 -67.5q-88 -88 -88 -212q0 -128 92 -211 q89 -79 218 -79v-50q-170 0 -228 -129l-32 -154q-24 -99 -61 -150q-49 -67 -129 -67v-50zM654 863v10q0 93 68 160.5t161 67.5q14 0 22 -1v-450q-7 -1 -13 -1h-13q-84 0 -149 58q-76 68 -76 156z" />
<glyph unicode="&#xe0;" horiz-adv-x="1350" d="M1500 0h-1800v50h50q168 0 272 178q38 65 78 172l300 800h500l400 -900q28 -62 85 -144q74 -106 115 -106v-50zM560 500l-160 350l-136 -350h296zM626 355q-1 3 -26 45h-373q-27 -46 -27 -100q0 -88 68 -145q64 -55 153 -55q85 0 150 49q72 53 72 135q0 33 -17 71z" />
<glyph unicode="&#xe1;" horiz-adv-x="1700" d="M1177 650q217 0 330 -66q143 -84 143 -284q0 -127 -86.5 -213.5t-213.5 -86.5h-1450v50q118 0 204 65q96 71 96 185v600q0 114 -96 185q-86 65 -204 65v50h1550v-500h-50l-500 400h-100v-450h377zM1050 350q-10 87 -73 144t-151 57q-17 0 -26 -1v-450q6 -1 12 -1h11 q93 0 160.5 68t67.5 161q0 13 -1 22z" />
<glyph unicode="&#xe2;" horiz-adv-x="1700" d="M1650 300q0 -127 -86.5 -213.5t-213.5 -86.5h-1450v50q118 0 204 65q96 71 96 185v600q0 114 -96 185q-86 65 -204 65v50h1450q127 0 213.5 -86.5t86.5 -213.5q0 -203 -142 -300q142 -96 142 -300zM1051 863v10q0 93 -68 160.5t-161 67.5q-14 0 -22 -1v-450q7 -1 13 -1 h13q85 0 150 58q75 67 75 156zM1050 350q-10 87 -73 144t-151 57q-17 0 -26 -1v-450q6 -1 12 -1h11q93 0 160.5 68t67.5 161q0 13 -1 22z" />
<glyph unicode="&#xe3;" horiz-adv-x="1550" d="M1450 1200h-1550v-50q96 0 191 -68q109 -78 109 -182v-600q0 -105 -108 -182q-96 -68 -192 -68v-50h1200v50q-96 0 -191 68q-109 78 -109 182v800h50l550 -450h50v550z" />
<glyph unicode="&#xe4;" horiz-adv-x="1886" d="M1412 0l500 -400h50v500h-100q-119 0 -214 69q-105 76 -105 191v540q0 104 109 182q95 68 191 68v50h-1700v-50q96 0 192 -68q108 -77 108 -182v-540q0 -115 -108 -192q-42 -30 -156 -51q-92 -17 -155 -17h-100v-500h50l500 400h938zM606 1050q49 50 137 50t144 -56 t56 -144v-600q-21 -200 -200 -200q-91 0 -137 48q-63 66 -63 152v600q0 85 63 150z" />
<glyph unicode="&#xe5;" horiz-adv-x="1550" d="M1450 0h-1550v50q146 0 217 50q83 59 83 200v600q0 250 -300 250v50h1550v-500h-50l-500 400h-100v-450l300 250v-550l-300 250v-500h50l550 450h50v-550z" />
<glyph unicode="&#xe6;" horiz-adv-x="2400" d="M1650 0v50q-45 0 -94 68q-56 78 -56 182v250q68 0 122 -40q58 -44 58 -110v-100q0 -135 110 -221q102 -79 240 -79h450v50q-77 0 -134 36q-66 41 -66 114v100q0 134 -110 220q-102 80 -240 80q138 0 240 79q110 86 110 221v100q0 73 66 114q57 36 134 36v50h-450 q-138 0 -240 -79q-110 -86 -110 -221v-100q0 -66 -58 -110q-54 -40 -122 -40v250q0 102 57 182q49 68 93 68v50h-890v-50q67 0 108 -97q32 -77 32 -153v-250q-68 0 -122 40q-58 44 -58 110v100q0 135 -110 221q-102 79 -240 79h-450v-50q77 0 134 -36q66 -41 66 -114v-100 q0 -135 110 -221q102 -79 240 -79q-138 0 -240 -80q-110 -86 -110 -220v-100q0 -73 -66 -114q-57 -36 -134 -36v-50h450q138 0 240 79q110 86 110 221v100q0 66 58 110q54 40 122 40v-250q0 -105 -56 -182q-49 -68 -94 -68v-50h900z" />
<glyph unicode="&#xe7;" horiz-adv-x="1450" d="M721 251q-58 -151 -221 -151q-143 0 -220 127q-31 51 -60 164l-140 -190q66 -48 179 -118q71 -44 229 -80q118 -27 312 -27q276 0 431 154q62 62 84 104q27 52 28 134q1 94 -80 164q-65 56 -135 67q70 18 140 90q78 80 79 165q2 121 -108 237q-130 137 -449 133 q-23 -1 -143 -7q-344 -17 -537 -17v-415h100q5 66 22 106q14 34 55 92q82 117 213 117q88 0 152 -81l44 -56q19 -31 24 -85q6 -62 -36 -132q-24 -40 -66 -67q-45 -29 -89 -28v-100q56 -8 115 -42q94 -55 94 -173q0 -41 -17 -85z" />
<glyph unicode="&#xe8;" horiz-adv-x="2000" d="M1800 900q0 104 109 182q95 68 191 68v50h-2200v-50q96 0 192 -68q108 -77 108 -182v-600q0 -104 -109 -182q-95 -68 -191 -68v-50h2200v50q-96 0 -192 68q-108 77 -108 182v600zM1000 70q-82 30 -136 86q-64 66 -64 144v32l400 404v-436q0 -79 -63 -144 q-54 -55 -137 -86zM800 900q0 78 64 144q54 56 136 86q82 -30 136 -86q64 -66 64 -144v-26l-400 -400v426z" />
<glyph unicode="&#xe9;" horiz-adv-x="2000" d="M2100 0v50q-96 0 -192 68q-108 77 -108 182v600q0 104 109 182q95 68 191 68v50h-786q37 3 61 31.5t24 66.5q0 100 -120 100q-131 0 -131 -100q0 -13 -63 -22q-43 -6 -77 -6q-38 0 -89 7q-69 9 -69 21q0 100 -131 100q-120 0 -120 -100q0 -39 26 -68.5t65 -29.5h-790v-50 q96 0 192 -68q108 -77 108 -182v-600q0 -104 -109 -182q-95 -68 -191 -68v-50h2200zM800 300v32l400 404v-436q0 -79 -64 -144q-54 -56 -136 -86q-82 30 -136 86q-64 66 -64 144zM800 900q0 78 64 144q54 56 136 86q82 -30 136 -86q64 -66 64 -144v-26l-400 -400v426z" />
<glyph unicode="&#xea;" horiz-adv-x="1700" d="M1800 0h-450q-138 0 -240 79q-110 86 -110 221v100q0 73 -66 114q-57 36 -134 36v-250q0 -104 56 -182q49 -68 94 -68v-50h-1050v50q96 0 191 68q109 78 109 182v600q0 105 -108 182q-96 68 -192 68v50h1050v-50q-44 0 -93 -68q-57 -80 -57 -182v-250q77 0 134 36 q66 41 66 114v100q0 135 110 221q102 79 240 79h450v-50q-77 0 -134 -36q-66 -41 -66 -114v-100q0 -135 -110 -221q-102 -79 -240 -79q138 0 240 -80q110 -86 110 -220v-100q0 -73 66 -114q57 -36 134 -36v-50z" />
<glyph unicode="&#xeb;" horiz-adv-x="1721" d="M521 300v600q0 54 26.5 105t71.5 76q33 19 102 19q92 1 137 -46q63 -66 63 -154v-600q0 -105 -108 -182q-96 -68 -192 -68v-50h1200v50q-96 0 -192 68q-108 77 -108 182v600q0 104 109 182q95 68 191 68v50h-1700v-50q96 0 192 -68q108 -77 108 -182v-600 q0 -104 -109 -182q-33 -24 -66 -24q-7 0 -22 3t-22 3q-131 19 -203 333l-99 -233q66 -100 115 -141q71 -59 167 -59h101q59 0 135 66q103 89 103 234z" />
<glyph unicode="&#xec;" horiz-adv-x="1950" d="M2050 0h-1100v50q106 0 178 72t72 178v600l-350 -900h-150l-350 800v-500q0 -107 71.5 -178.5t178.5 -71.5v-50h-650v50q118 0 204 65q96 71 96 185v600q0 114 -96 185q-86 65 -204 65v50h800l250 -500l200 500h850v-50q-118 0 -204 -65q-96 -71 -96 -185v-600 q0 -114 96 -185q86 -65 204 -65v-50z" />
<glyph unicode="&#xed;" horiz-adv-x="2000" d="M2100 0h-2200v50q96 0 191 68q109 78 109 182v600q0 105 -108 182q-96 68 -192 68v50h2200v-50q-96 0 -191 -68q-109 -78 -109 -182v-600q0 -105 108 -182q96 -68 192 -68v-50zM1200 650v250q0 78 -64 144q-54 56 -136 86q-82 -30 -136 -86q-64 -66 -64 -144v-250h400z M1200 300v250h-400v-250q0 -78 64 -144q54 -56 136 -86q82 30 136 86q64 66 64 144z" />
<glyph unicode="&#xee;" horiz-adv-x="1500" d="M1600 600q0 -189 -122 -331q-109 -127 -297 -200q-178 -69 -381 -69q-317 0 -546 153q-254 170 -254 447q0 189 122 331q109 127 297 200q178 69 381 69q317 0 546 -153q254 -170 254 -447zM950 600q0 197 -5 263q-18 237 -145 237q-126 0 -142 -217q-8 -108 -8 -283 q0 -197 5 -263q18 -237 145 -237q126 0 144 237q6 79 6 263z" />
<glyph unicode="&#xef;" horiz-adv-x="2000" d="M2100 0h-2200v50q96 0 191 68q109 78 109 182v600q0 105 -108 182q-96 68 -192 68v50h2200v-50q-96 0 -191 -68q-109 -78 -109 -182v-600q0 -105 108 -182q96 -68 192 -68v-50zM1137 1053q-45 47 -136 47q-93 0 -138 -47q-63 -65 -63 -153v-600q0 -78 64 -144 q54 -56 136 -86q82 30 136 86q64 66 64 144v600q0 87 -63 153z" />
<glyph unicode="&#xf0;" horiz-adv-x="1700" d="M1650 900q0 -138 -79 -240q-86 -110 -221 -110h-550v-250q0 -107 71.5 -178.5t178.5 -71.5v-50h-1150v50q118 0 204 65q96 71 96 185v600q0 114 -96 185q-86 65 -204 65v50h1450q127 0 213.5 -86.5t86.5 -213.5zM1051 863v10q0 93 -68 160.5t-161 67.5q-14 0 -22 -1v-450 q7 -1 13 -1h13q85 0 150 58q75 67 75 156z" />
<glyph unicode="&#xf1;" horiz-adv-x="1450" d="M1400 400q-155 -331 -438 -397q-115 -27 -312 -27q-282 0 -443 172q-157 168 -157 452q0 299 149 461q154 168 451 163q36 -2 143 -7q351 -17 557 -17v-500h-100q0 161 -68 270q-81 130 -232 130q-174 0 -229 -273q-21 -104 -21 -227q0 -201 50 -331q65 -169 200 -169 q154 0 235 168q65 135 65 332z" />
<glyph unicode="&#xf2;" horiz-adv-x="1500" d="M1500 550h-50q0 78 -296 429q-98 116 -104 121v-700q0 -149 100.5 -249.5t249.5 -100.5v-50h-1300v50q149 0 249.5 100.5t100.5 249.5v700q-14 -15 -103 -120q-297 -351 -297 -430h-50v650h1500v-650z" />
<glyph unicode="&#xf3;" horiz-adv-x="1250" d="M640 240l-440 660q-19 33 -77 123q-86 127 -223 127v50h1600v-50q-210 0 -300 -193l-360 -774q-25 -55 -60 -91q-88 -92 -211 -92h-29q-144 0 -248 48q-94 44 -202 152l137 233q39 -109 120 -217q33 -44 85 -74q57 -33 108 -32q58 1 79 7q39 11 65 48zM1100 1000 q8 17 8 32q0 49 -56 85q-50 33 -102 33q-54 0 -103 -31q-55 -36 -55 -87q0 -19 8 -32l170 -280z" />
<glyph unicode="&#xf4;" horiz-adv-x="2120" d="M618 813q-69 -69 -69 -209v-10q0 -5 1 -13q17 -141 75 -193q65 -58 109 -58h13q6 0 13 1v550q-2 0 -9 1q-57 7 -133 -69zM651 1082q-95 68 -191 68v50h1200v-50q-96 0 -191 -68q-52 -37 -109 -101h510q124 0 212 -88q41 -41 66 -123q22 -71 22 -139q0 -189 -83 -292 q-87 -108 -217 -108h-510q28 -42 37 -52q25 -28 71 -61q95 -68 192 -68v-50h-1200v50q96 0 192 68q61 43 108 113h-510q-130 0 -217 108q-83 103 -83 292q0 68 22 140q24 80 66 122q88 88 212 88h510q-51 60 -109 101zM1570 581q1 9 1 13v10q0 140 -69 209q-59 59 -120 69 q-6 1 -22 -1v-550q7 -1 13 -1h13q79 0 134 91q39 65 50 160z" />
<glyph unicode="&#xf5;" horiz-adv-x="1250" d="M1450 1150q-194 0 -300 -193l-198 -361l148 -296q60 -120 118 -176q77 -74 182 -74v-50h-1550v50q194 0 300 193l198 361l-148 296q-60 120 -118 176q-77 74 -182 74v50h1550v-50zM1050 1000q8 16 8 32q0 49 -56 85q-50 33 -102 33q-54 0 -103 -31q-55 -36 -55 -87 q0 -16 8 -32l150 -300zM550 200l-150 300l-150 -300q-8 -16 -8 -32q0 -49 56 -85q50 -33 102 -33q54 0 103 31q55 36 55 87q0 16 -8 32z" />
<glyph unicode="&#xf6;" horiz-adv-x="2064" d="M-100 1200h2200v-50q-96 0 -192 -68q-108 -77 -108 -182v-550q0 -104 109 -182q95 -68 191 -68h38v-510h-50q-227 299 -550 410h-1638v50q96 0 192 68q108 77 108 182v600q0 104 -109 182q-95 68 -191 68v50zM800 900v-600q0 -88 63 -153q45 -47 138 -47q91 0 136 47 q63 66 63 153v600q0 78 -64 144q-54 56 -136 86q-82 -30 -136 -86q-64 -66 -64 -144z" />
<glyph unicode="&#xf7;" horiz-adv-x="1830" d="M1930 1150q-118 0 -204 -65q-96 -71 -96 -185v-600q0 -114 96 -185q86 -65 204 -65v-50h-1150v50q107 0 178.5 71.5t71.5 178.5v200q-30 -1 -185 -9q-134 -7 -222 -7q-44 0 -139 5q-131 7 -221 119q-70 87 -75 293q-1 47 -30 100.5t-67 80.5q-95 68 -191 68v50h2030v-50z M779 843q0 -45 22 -100q23 -58 54 -86q65 -58 149 -58h13q6 0 13 1v298q0 100 -15 137q-19 47 -91 95q-136 -68 -144 -221q-1 -20 -1 -56v-10z" />
<glyph unicode="&#xf8;" horiz-adv-x="2960" d="M3060 1200v-50q-96 0 -191 -68q-109 -78 -109 -182v-600q0 -105 108 -182q96 -68 192 -68v-50h-3160v50q96 0 192 68q108 77 108 182v600q0 104 -109 182q-95 68 -191 68v50h3160zM1780 900v-600q0 -88 63 -153q45 -47 128 -47q81 0 126 47q63 66 63 153v600 q0 73 -61 141q-55 62 -129 89q-75 -28 -129 -89q-61 -68 -61 -141zM800 900v-600q0 -88 63 -153q45 -47 128 -47q81 0 126 47q63 66 63 153v600q0 73 -61 141q-55 62 -129 89q-75 -28 -129 -89q-61 -68 -61 -141z" />
<glyph unicode="&#xf9;" horiz-adv-x="3024" d="M-100 50q96 0 192 68q108 77 108 182v600q0 104 -109 182q-95 68 -191 68v50h3160v-50q-96 0 -192 -68q-108 -77 -108 -182v-550q0 -104 109 -182q95 -68 191 -68h38v-510h-50q-227 299 -550 410h-2598v50zM1780 900v-600q0 -88 63 -153q45 -47 128 -47q81 0 126 47 q63 66 63 153v600q0 73 -61 141q-55 62 -129 89q-75 -28 -129 -89q-61 -68 -61 -141zM-100 1200zM800 900v-600q0 -88 63 -153q45 -47 128 -47q81 0 126 47q63 66 63 153v600q0 73 -61 141q-55 62 -129 89q-75 -28 -129 -89q-61 -68 -61 -141z" />
<glyph unicode="&#xfa;" horiz-adv-x="2110" d="M-100 701h50l510 400q20 0 57 -19q93 -72 93 -182v-600q0 -114 -96 -185q-86 -65 -204 -65v-50h1450q114 0 212 98q88 88 88 212q0 142 -78 237q-83 103 -222 103h-550v250q0 107 71.5 178.5t178.5 71.5v50l-1560 1v-500zM1461 338v-11q0 -93 -68 -160.5t-161 -67.5 q-14 0 -22 1v450q7 1 13 1h13q86 0 150 -57q75 -67 75 -156z" />
<glyph unicode="&#xfb;" horiz-adv-x="2670" d="M1650 310q0 142 -78 237q-83 103 -222 103h-550v250q0 107 71.5 178.5t178.5 71.5v50h-1150v-50q118 0 204 -65q96 -71 96 -185v-600q0 -114 -96 -185q-86 -65 -204 -65v-50h1450q114 0 212 98q88 88 88 212zM1051 338v-11q0 -93 -68 -160.5t-161 -67.5q-14 0 -22 1v450 q7 1 13 1h13q86 0 150 -57q75 -67 75 -156zM2770 0h-1200v50q96 0 191 68q109 78 109 182v600q0 105 -108 182q-96 68 -192 68v50h1200v-50q-96 0 -191 -68q-109 -78 -109 -182v-600q0 -105 108 -182q96 -68 192 -68v-50z" />
<glyph unicode="&#xfc;" horiz-adv-x="1700" d="M1650 310q0 142 -78 237q-83 103 -222 103h-550v250q0 107 71.5 178.5t178.5 71.5v50h-1150v-50q118 0 204 -65q96 -71 96 -185v-600q0 -114 -96 -185q-86 -65 -204 -65v-50h1450q114 0 212 98q88 88 88 212zM1051 338v-11q0 -93 -68 -160.5t-161 -67.5q-14 0 -22 1v450 q7 1 13 1h13q86 0 150 -57q75 -67 75 -156z" />
<glyph unicode="&#xfd;" horiz-adv-x="1450" d="M700 269q-65 -169 -200 -169q-143 0 -220 127q-31 51 -60 164l-140 -190q66 -48 179 -118q71 -44 229 -80q118 -27 312 -27q282 0 443 172q157 168 157 452q0 300 -148 461q-154 168 -452 163q-36 -2 -143 -7q-351 -17 -557 -17v-480h100q0 151 73 258q83 122 227 122 q174 0 229 -273q17 -84 21 -177l-300 250v-550l300 250q0 -201 -50 -331z" />
<glyph unicode="&#xfe;" horiz-adv-x="2390" d="M800 550v-250q0 -105 108 -182q96 -68 192 -68v-50h-1200v50q96 0 191 68q109 78 109 182v600q0 105 -108 182q-96 68 -192 68v50h1200v-50q-96 0 -191 -68q-109 -78 -109 -182v-250h92q13 177 148 312q118 118 301 181q167 57 349 57q317 0 546 -153q254 -170 254 -447 q0 -189 -122 -331q-109 -127 -297 -200q-178 -69 -381 -69q-286 0 -512 131q-266 154 -286 419h-92zM1840 600q0 197 -5 263q-18 237 -145 237q-126 0 -142 -217q-8 -108 -8 -283q0 -197 5 -263q18 -237 145 -237q126 0 144 237q6 79 6 263z" />
<glyph unicode="&#xff;" horiz-adv-x="1700" d="M-85 0h450q137 0 231.5 82t108.5 218l10 100q7 73 63 113q51 37 127 37v-250q0 -107 -71.5 -178.5t-178.5 -71.5v-50h1150v50q-118 0 -204 65q-96 71 -96 185v600q0 114 96 185q86 65 204 65v50h-1450q-48 0 -111.5 -30.5t-100.5 -67.5q-88 -88 -88 -212q0 -128 92 -211 q89 -79 218 -79v-50q-170 0 -228 -129l-32 -154q-24 -99 -61 -150q-49 -67 -129 -67v-50zM654 863v10q0 93 68 160.5t161 67.5q14 0 22 -1v-450q-7 -1 -13 -1h-13q-84 0 -149 58q-76 68 -76 156z" />
<glyph unicode="&#x2000;" horiz-adv-x="700" />
<glyph unicode="&#x2001;" horiz-adv-x="1400" />
<glyph unicode="&#x2002;" horiz-adv-x="700" />
<glyph unicode="&#x2003;" horiz-adv-x="1400" />
<glyph unicode="&#x2004;" horiz-adv-x="466" />
<glyph unicode="&#x2005;" horiz-adv-x="350" />
<glyph unicode="&#x2006;" horiz-adv-x="233" />
<glyph unicode="&#x2007;" horiz-adv-x="233" />
<glyph unicode="&#x2008;" horiz-adv-x="175" />
<glyph unicode="&#x2009;" horiz-adv-x="280" />
<glyph unicode="&#x200a;" horiz-adv-x="77" />
<glyph unicode="&#x2010;" d="M1360 640h-480q0 93 -80 138l240 416q153 -88 236.5 -232.5t83.5 -321.5zM840 640q0 -50 -35 -85t-85 -35t-85 35t-35 85t35 85t85 35t85 -35t35 -85zM640 778q-80 -48 -80 -138h-480q0 177 83.5 321.5t236.5 232.5zM1040 86q-143 -86 -320 -86q-170 0 -320 86l240 416 q38 -22 80 -22q43 0 80 21z" />
<glyph unicode="&#x2011;" d="M1360 640h-480q0 93 -80 138l240 416q153 -88 236.5 -232.5t83.5 -321.5zM840 640q0 -50 -35 -85t-85 -35t-85 35t-35 85t35 85t85 35t85 -35t35 -85zM640 778q-80 -48 -80 -138h-480q0 177 83.5 321.5t236.5 232.5zM1040 86q-143 -86 -320 -86q-170 0 -320 86l240 416 q38 -22 80 -22q43 0 80 21z" />
<glyph unicode="&#x2012;" d="M1360 640h-480q0 93 -80 138l240 416q153 -88 236.5 -232.5t83.5 -321.5zM840 640q0 -50 -35 -85t-85 -35t-85 35t-35 85t35 85t85 35t85 -35t35 -85zM640 778q-80 -48 -80 -138h-480q0 177 83.5 321.5t236.5 232.5zM1040 86q-143 -86 -320 -86q-170 0 -320 86l240 416 q38 -22 80 -22q43 0 80 21z" />
<glyph unicode="&#x2013;" horiz-adv-x="960" d="M880 640h-300q0 93 -50 138l150 416q96 -88 148 -232.5t52 -321.5zM555 640q0 -50 -22 -85t-53 -35t-53 35t-22 85t22 85t53 35t53 -35t22 -85zM430 778q-50 -48 -50 -138h-300q0 177 52 321.5t148 232.5zM680 86q-89 -86 -200 -86q-106 0 -200 86l150 416q24 -22 50 -22 q27 0 50 21z" />
<glyph unicode="&#x2014;" horiz-adv-x="1760" d="M1680 640h-600q0 93 -100 138l300 416q191 -88 295.5 -232.5t104.5 -321.5zM1030 640q0 -50 -44 -85t-106 -35t-106 35t-44 85t44 85t106 35t106 -35t44 -85zM780 778q-100 -48 -100 -138h-600q0 177 104.5 321.5t295.5 232.5zM1280 86q-179 -86 -400 -86q-212 0 -400 86 l300 416q48 -22 100 -22q54 0 100 21z" />
<glyph unicode="&#x202f;" horiz-adv-x="280" />
<glyph unicode="&#x205f;" horiz-adv-x="350" />
<glyph unicode="&#x25fc;" horiz-adv-x="1200" d="M0 1200h1200v-1200h-1200v1200z" />
</font>
</defs>
</svg>
